<svg class="railroad-diagram" height="62" viewBox="0 0 411.0 62" width="411.0" xmlns="http://www.w3.org/2000/svg">
<g transform="translate(.5 .5)">
<style>/* <![CDATA[ */
	svg.railroad-diagram {
		background-color:hsl(30,20%,95%);
	}
	svg.railroad-diagram path {
		stroke-width:3;
		stroke:black;
		fill:rgba(0,0,0,0);
	}
	svg.railroad-diagram text {
		font:bold 14px monospace;
		text-anchor:middle;
	}
	svg.railroad-diagram text.label{
		text-anchor:start;
	}
	svg.railroad-diagram text.comment{
		font:italic 12px monospace;
	}
	svg.railroad-diagram rect{
		stroke-width:3;
		stroke:black;
		fill:hsl(120,100%,90%);
	}
	svg.railroad-diagram rect.group-box {
		stroke: gray;
		stroke-dasharray: 10 5;
		fill: none;
	}

/* ]]> */
</style><g>
<path d="M20 21v20m10 -20v20m-10 -10h129.0"></path><text style="text-anchor:start" x="20" y="16">BlockParameter</text></g><path d="M149.0 31h10"></path><g>
<path d="M159.0 31h0.0"></path><path d="M361.0 31h0.0"></path><g class="terminal ">
<path d="M159.0 31h0.0"></path><path d="M196.0 31h0.0"></path><rect height="22" rx="10" ry="10" width="37.0" x="159.0" y="20"></rect><text x="177.5" y="35">ID</text></g><path d="M196.0 31h10"></path><path d="M206.0 31h10"></path><g class="terminal ">
<path d="M216.0 31h0.0"></path><path d="M278.5 31h0.0"></path><rect height="22" rx="10" ry="10" width="62.5" x="216.0" y="20"></rect><text x="247.25" y="35">COLON</text></g><path d="M278.5 31h10"></path><path d="M288.5 31h10"></path><g class="non-terminal ">
<path d="M298.5 31h0.0"></path><path d="M361.0 31h0.0"></path><rect height="22" width="62.5" x="298.5" y="20"></rect><text x="329.75" y="35">Block</text></g></g><path d="M361.0 31h10"></path><path d="M 371.0 31 h 20 m -10 -10 v 20 m 10 -20 v 20"></path></g></svg>