<svg class="railroad-diagram" height="71" viewBox="0 0 358.5 71" width="358.5" xmlns="http://www.w3.org/2000/svg">
<g transform="translate(.5 .5)">
<style>/* <![CDATA[ */
	svg.railroad-diagram {
		background-color:hsl(30,20%,95%);
	}
	svg.railroad-diagram path {
		stroke-width:3;
		stroke:black;
		fill:rgba(0,0,0,0);
	}
	svg.railroad-diagram text {
		font:bold 14px monospace;
		text-anchor:middle;
	}
	svg.railroad-diagram text.label{
		text-anchor:start;
	}
	svg.railroad-diagram text.comment{
		font:italic 12px monospace;
	}
	svg.railroad-diagram rect{
		stroke-width:3;
		stroke:black;
		fill:hsl(120,100%,90%);
	}
	svg.railroad-diagram rect.group-box {
		stroke: gray;
		stroke-dasharray: 10 5;
		fill: none;
	}

/* ]]> */
</style><g>
<path d="M20 30v20m10 -20v20m-10 -10h52.5"></path><text style="text-anchor:start" x="20" y="25">Block</text></g><path d="M72.5 40h10"></path><g>
<path d="M82.5 40h0.0"></path><path d="M308.5 40h0.0"></path><g class="non-terminal ">
<path d="M82.5 40h0.0"></path><path d="M162.0 40h0.0"></path><rect height="22" width="79.5" x="82.5" y="29"></rect><text x="122.25" y="44">Declare</text></g><path d="M162.0 40h10"></path><g>
<path d="M172.0 40h0.0"></path><path d="M308.5 40h0.0"></path><path d="M172.0 40a10 10 0 0 0 10 -10v0a10 10 0 0 1 10 -10"></path><g>
<path d="M192.0 20h96.5"></path></g><path d="M288.5 20a10 10 0 0 1 10 10v0a10 10 0 0 0 10 10"></path><path d="M172.0 40h20"></path><g class="non-terminal ">
<path d="M192.0 40h0.0"></path><path d="M288.5 40h0.0"></path><rect height="22" width="96.5" x="192.0" y="29"></rect><text x="240.25" y="44">Configure</text></g><path d="M288.5 40h20"></path></g></g><path d="M308.5 40h10"></path><path d="M 318.5 40 h 20 m -10 -10 v 20 m 10 -20 v 20"></path></g></svg>