<svg class="railroad-diagram" height="92" viewBox="0 0 198.0 92" width="198.0" xmlns="http://www.w3.org/2000/svg">
<g transform="translate(.5 .5)">
<style>/* <![CDATA[ */
	svg.railroad-diagram {
		background-color:hsl(30,20%,95%);
	}
	svg.railroad-diagram path {
		stroke-width:3;
		stroke:black;
		fill:rgba(0,0,0,0);
	}
	svg.railroad-diagram text {
		font:bold 14px monospace;
		text-anchor:middle;
	}
	svg.railroad-diagram text.label{
		text-anchor:start;
	}
	svg.railroad-diagram text.comment{
		font:italic 12px monospace;
	}
	svg.railroad-diagram rect{
		stroke-width:3;
		stroke:black;
		fill:hsl(120,100%,90%);
	}
	svg.railroad-diagram rect.group-box {
		stroke: gray;
		stroke-dasharray: 10 5;
		fill: none;
	}

/* ]]> */
</style><g>
<path d="M20 21v20m10 -20v20m-10 -10h35.5"></path><text style="text-anchor:start" x="20" y="16">Bus</text></g><path d="M55.5 31h10"></path><g>
<path d="M65.5 31h0.0"></path><path d="M148.0 31h0.0"></path><path d="M65.5 31h10"></path><g class="non-terminal ">
<path d="M75.5 31h0.0"></path><path d="M138.0 31h0.0"></path><rect height="22" width="62.5" x="75.5" y="20"></rect><text x="106.75" y="35">Chain</text></g><path d="M138.0 31h10"></path><path d="M75.5 31a10 10 0 0 0 -10 10v10a10 10 0 0 0 10 10"></path><g class="terminal ">
<path d="M75.5 61h0.0"></path><path d="M138.0 61h0.0"></path><rect height="22" rx="10" ry="10" width="62.5" x="75.5" y="50"></rect><text x="106.75" y="65">COMMA</text></g><path d="M138.0 61a10 10 0 0 0 10 -10v-10a10 10 0 0 0 -10 -10"></path></g><path d="M148.0 31h10"></path><path d="M 158.0 31 h 20 m -10 -10 v 20 m 10 -20 v 20"></path></g></svg>