<svg class="railroad-diagram" height="122" viewBox="0 0 513.5 122" width="513.5" xmlns="http://www.w3.org/2000/svg">
<g transform="translate(.5 .5)">
<style>/* <![CDATA[ */
	svg.railroad-diagram {
		background-color:hsl(30,20%,95%);
	}
	svg.railroad-diagram path {
		stroke-width:3;
		stroke:black;
		fill:rgba(0,0,0,0);
	}
	svg.railroad-diagram text {
		font:bold 14px monospace;
		text-anchor:middle;
	}
	svg.railroad-diagram text.label{
		text-anchor:start;
	}
	svg.railroad-diagram text.comment{
		font:italic 12px monospace;
	}
	svg.railroad-diagram rect{
		stroke-width:3;
		stroke:black;
		fill:hsl(120,100%,90%);
	}
	svg.railroad-diagram rect.group-box {
		stroke: gray;
		stroke-dasharray: 10 5;
		fill: none;
	}

/* ]]> */
</style><g>
<path d="M20 21v20m10 -20v20m-10 -10h86.5"></path><text style="text-anchor:start" x="20" y="16">Configure</text></g><path d="M106.5 31h10"></path><g>
<path d="M116.5 31h0.0"></path><path d="M463.5 31h0.0"></path><g class="terminal ">
<path d="M116.5 31h0.0"></path><path d="M170.5 31h0.0"></path><rect height="22" rx="10" ry="10" width="54.0" x="116.5" y="20"></rect><text x="143.5" y="35">LBRC</text></g><path d="M170.5 31h10"></path><path d="M180.5 31h10"></path><g>
<path d="M190.5 31h0.0"></path><path d="M389.5 31h0.0"></path><path d="M190.5 31h10"></path><g>
<path d="M200.5 31h0.0"></path><path d="M379.5 31h0.0"></path><path d="M200.5 31h20"></path><g class="non-terminal ">
<path d="M220.5 31h21.25"></path><path d="M338.25 31h21.25"></path><rect height="22" width="96.5" x="241.75" y="20"></rect><text x="290.0" y="35">Parameter</text></g><path d="M359.5 31h20"></path><path d="M200.5 31a10 10 0 0 1 10 10v10a10 10 0 0 0 10 10"></path><g class="non-terminal ">
<path d="M220.5 61h0.0"></path><path d="M359.5 61h0.0"></path><rect height="22" width="139.0" x="220.5" y="50"></rect><text x="290.0" y="65">BlockParameter</text></g><path d="M359.5 61a10 10 0 0 0 10 -10v-10a10 10 0 0 1 10 -10"></path></g><path d="M379.5 31h10"></path><path d="M200.5 31a10 10 0 0 0 -10 10v40a10 10 0 0 0 10 10"></path><g class="terminal ">
<path d="M200.5 91h58.25"></path><path d="M321.25 91h58.25"></path><rect height="22" rx="10" ry="10" width="62.5" x="258.75" y="80"></rect><text x="290.0" y="95">COMMA</text></g><path d="M379.5 91a10 10 0 0 0 10 -10v-40a10 10 0 0 0 -10 -10"></path></g><path d="M389.5 31h10"></path><path d="M399.5 31h10"></path><g class="terminal ">
<path d="M409.5 31h0.0"></path><path d="M463.5 31h0.0"></path><rect height="22" rx="10" ry="10" width="54.0" x="409.5" y="20"></rect><text x="436.5" y="35">RBRC</text></g></g><path d="M463.5 31h10"></path><path d="M 473.5 31 h 20 m -10 -10 v 20 m 10 -20 v 20"></path></g></svg>