<svg class="railroad-diagram" height="71" viewBox="0 0 464.0 71" width="464.0" xmlns="http://www.w3.org/2000/svg">
<g transform="translate(.5 .5)">
<style>/* <![CDATA[ */
	svg.railroad-diagram {
		background-color:hsl(30,20%,95%);
	}
	svg.railroad-diagram path {
		stroke-width:3;
		stroke:black;
		fill:rgba(0,0,0,0);
	}
	svg.railroad-diagram text {
		font:bold 14px monospace;
		text-anchor:middle;
	}
	svg.railroad-diagram text.label{
		text-anchor:start;
	}
	svg.railroad-diagram text.comment{
		font:italic 12px monospace;
	}
	svg.railroad-diagram rect{
		stroke-width:3;
		stroke:black;
		fill:hsl(120,100%,90%);
	}
	svg.railroad-diagram rect.group-box {
		stroke: gray;
		stroke-dasharray: 10 5;
		fill: none;
	}

/* ]]> */
</style><g>
<path d="M20 30v20m10 -20v20m-10 -10h69.5"></path><text style="text-anchor:start" x="20" y="25">Declare</text></g><path d="M89.5 40h10"></path><g>
<path d="M99.5 40h0.0"></path><path d="M414.0 40h0.0"></path><g class="non-terminal ">
<path d="M99.5 40h0.0"></path><path d="M179.0 40h0.0"></path><rect height="22" width="79.5" x="99.5" y="29"></rect><text x="139.25" y="44">Pointer</text></g><path d="M179.0 40h10"></path><g>
<path d="M189.0 40h0.0"></path><path d="M414.0 40h0.0"></path><path d="M189.0 40a10 10 0 0 0 10 -10v0a10 10 0 0 1 10 -10"></path><g>
<path d="M209.0 20h185.0"></path></g><path d="M394.0 20a10 10 0 0 1 10 10v0a10 10 0 0 0 10 10"></path><path d="M189.0 40h20"></path><g>
<path d="M209.0 40h0.0"></path><path d="M394.0 40h0.0"></path><g class="terminal ">
<path d="M209.0 40h0.0"></path><path d="M263.0 40h0.0"></path><rect height="22" rx="10" ry="10" width="54.0" x="209.0" y="29"></rect><text x="236.0" y="44">LBRK</text></g><path d="M263.0 40h10"></path><path d="M273.0 40h10"></path><g class="terminal ">
<path d="M283.0 40h0.0"></path><path d="M320.0 40h0.0"></path><rect height="22" rx="10" ry="10" width="37.0" x="283.0" y="29"></rect><text x="301.5" y="44">ID</text></g><path d="M320.0 40h10"></path><path d="M330.0 40h10"></path><g class="terminal ">
<path d="M340.0 40h0.0"></path><path d="M394.0 40h0.0"></path><rect height="22" rx="10" ry="10" width="54.0" x="340.0" y="29"></rect><text x="367.0" y="44">RBRK</text></g></g><path d="M394.0 40h20"></path></g></g><path d="M414.0 40h10"></path><path d="M 424.0 40 h 20 m -10 -10 v 20 m 10 -20 v 20"></path></g></svg>