<svg class="railroad-diagram" height="62" viewBox="0 0 542.0 62" width="542.0" xmlns="http://www.w3.org/2000/svg">
<g transform="translate(.5 .5)">
<style>/* <![CDATA[ */
	svg.railroad-diagram {
		background-color:hsl(30,20%,95%);
	}
	svg.railroad-diagram path {
		stroke-width:3;
		stroke:black;
		fill:rgba(0,0,0,0);
	}
	svg.railroad-diagram text {
		font:bold 14px monospace;
		text-anchor:middle;
	}
	svg.railroad-diagram text.label{
		text-anchor:start;
	}
	svg.railroad-diagram text.comment{
		font:italic 12px monospace;
	}
	svg.railroad-diagram rect{
		stroke-width:3;
		stroke:black;
		fill:hsl(120,100%,90%);
	}
	svg.railroad-diagram rect.group-box {
		stroke: gray;
		stroke-dasharray: 10 5;
		fill: none;
	}

/* ]]> */
</style><g>
<path d="M20 21v20m10 -20v20m-10 -10h61.0"></path><text style="text-anchor:start" x="20" y="16">Define</text></g><path d="M81.0 31h10"></path><g>
<path d="M91.0 31h0.0"></path><path d="M492.0 31h0.0"></path><g class="terminal ">
<path d="M91.0 31h0.0"></path><path d="M162.0 31h0.0"></path><rect height="22" rx="10" ry="10" width="71.0" x="91.0" y="20"></rect><text x="126.5" y="35">ASSIGN</text></g><path d="M162.0 31h10"></path><path d="M172.0 31h10"></path><g class="terminal ">
<path d="M182.0 31h0.0"></path><path d="M219.0 31h0.0"></path><rect height="22" rx="10" ry="10" width="37.0" x="182.0" y="20"></rect><text x="200.5" y="35">ID</text></g><path d="M219.0 31h10"></path><path d="M229.0 31h10"></path><g class="terminal ">
<path d="M239.0 31h0.0"></path><path d="M293.0 31h0.0"></path><rect height="22" rx="10" ry="10" width="54.0" x="239.0" y="20"></rect><text x="266.0" y="35">FROM</text></g><path d="M293.0 31h10"></path><path d="M303.0 31h10"></path><g class="non-terminal ">
<path d="M313.0 31h0.0"></path><path d="M409.5 31h0.0"></path><rect height="22" width="96.5" x="313.0" y="20"></rect><text x="361.25" y="35">ValueExpr</text></g><path d="M409.5 31h10"></path><path d="M419.5 31h10"></path><g class="terminal ">
<path d="M429.5 31h0.0"></path><path d="M492.0 31h0.0"></path><rect height="22" rx="10" ry="10" width="62.5" x="429.5" y="20"></rect><text x="460.75" y="35">SEMIC</text></g></g><path d="M492.0 31h10"></path><path d="M 502.0 31 h 20 m -10 -10 v 20 m 10 -20 v 20"></path></g></svg>