<svg class="railroad-diagram" height="101" viewBox="0 0 670.5 101" width="670.5" xmlns="http://www.w3.org/2000/svg">
<g transform="translate(.5 .5)">
<style>/* <![CDATA[ */
	svg.railroad-diagram {
		background-color:hsl(30,20%,95%);
	}
	svg.railroad-diagram path {
		stroke-width:3;
		stroke:black;
		fill:rgba(0,0,0,0);
	}
	svg.railroad-diagram text {
		font:bold 14px monospace;
		text-anchor:middle;
	}
	svg.railroad-diagram text.label{
		text-anchor:start;
	}
	svg.railroad-diagram text.comment{
		font:italic 12px monospace;
	}
	svg.railroad-diagram rect{
		stroke-width:3;
		stroke:black;
		fill:hsl(120,100%,90%);
	}
	svg.railroad-diagram rect.group-box {
		stroke: gray;
		stroke-dasharray: 10 5;
		fill: none;
	}

/* ]]> */
</style><g>
<path d="M20 30v20m10 -20v20m-10 -10h61.0"></path><text style="text-anchor:start" x="20" y="25">Import</text></g><path d="M81.0 40h10"></path><g>
<path d="M91.0 40h0.0"></path><path d="M620.5 40h0.0"></path><g class="terminal ">
<path d="M91.0 40h0.0"></path><path d="M162.0 40h0.0"></path><rect height="22" rx="10" ry="10" width="71.0" x="91.0" y="29"></rect><text x="126.5" y="44">IMPORT</text></g><path d="M162.0 40h10"></path><path d="M172.0 40h10"></path><g>
<path d="M182.0 40h0.0"></path><path d="M247.5 40h0.0"></path><path d="M182.0 40h10"></path><g>
<path d="M192.0 40h45.5"></path></g><path d="M237.5 40h10"></path><path d="M192.0 40a10 10 0 0 0 -10 10v0a10 10 0 0 0 10 10"></path><g class="terminal ">
<path d="M192.0 60h0.0"></path><path d="M237.5 60h0.0"></path><rect height="22" rx="10" ry="10" width="45.5" x="192.0" y="49"></rect><text x="214.75" y="64">DOT</text></g><path d="M237.5 60a10 10 0 0 0 10 -10v0a10 10 0 0 0 -10 -10"></path></g><path d="M247.5 40h10"></path><path d="M257.5 40h10"></path><g>
<path d="M267.5 40h0.0"></path><path d="M333.0 40h0.0"></path><path d="M267.5 40h10"></path><g class="terminal ">
<path d="M277.5 40h4.25"></path><path d="M318.75 40h4.25"></path><rect height="22" rx="10" ry="10" width="37.0" x="281.75" y="29"></rect><text x="300.25" y="44">ID</text></g><path d="M323.0 40h10"></path><path d="M277.5 40a10 10 0 0 0 -10 10v10a10 10 0 0 0 10 10"></path><g class="terminal ">
<path d="M277.5 70h0.0"></path><path d="M323.0 70h0.0"></path><rect height="22" rx="10" ry="10" width="45.5" x="277.5" y="59"></rect><text x="300.25" y="74">DOT</text></g><path d="M323.0 70a10 10 0 0 0 10 -10v-10a10 10 0 0 0 -10 -10"></path></g><path d="M333.0 40h10"></path><g>
<path d="M343.0 40h0.0"></path><path d="M548.0 40h0.0"></path><path d="M343.0 40a10 10 0 0 0 10 -10v0a10 10 0 0 1 10 -10"></path><g>
<path d="M363.0 20h165.0"></path></g><path d="M528.0 20a10 10 0 0 1 10 10v0a10 10 0 0 0 10 10"></path><path d="M343.0 40h20"></path><g>
<path d="M363.0 40h0.0"></path><path d="M528.0 40h0.0"></path><g class="terminal ">
<path d="M363.0 40h0.0"></path><path d="M425.5 40h0.0"></path><rect height="22" rx="10" ry="10" width="62.5" x="363.0" y="29"></rect><text x="394.25" y="44">COLON</text></g><path d="M425.5 40h10"></path><path d="M435.5 40h10"></path><g>
<path d="M445.5 40h0.0"></path><path d="M528.0 40h0.0"></path><path d="M445.5 40h10"></path><g class="terminal ">
<path d="M455.5 40h12.75"></path><path d="M505.25 40h12.75"></path><rect height="22" rx="10" ry="10" width="37.0" x="468.25" y="29"></rect><text x="486.75" y="44">ID</text></g><path d="M518.0 40h10"></path><path d="M455.5 40a10 10 0 0 0 -10 10v10a10 10 0 0 0 10 10"></path><g class="terminal ">
<path d="M455.5 70h0.0"></path><path d="M518.0 70h0.0"></path><rect height="22" rx="10" ry="10" width="62.5" x="455.5" y="59"></rect><text x="486.75" y="74">COMMA</text></g><path d="M518.0 70a10 10 0 0 0 10 -10v-10a10 10 0 0 0 -10 -10"></path></g></g><path d="M528.0 40h20"></path></g><path d="M548.0 40h10"></path><g class="terminal ">
<path d="M558.0 40h0.0"></path><path d="M620.5 40h0.0"></path><rect height="22" rx="10" ry="10" width="62.5" x="558.0" y="29"></rect><text x="589.25" y="44">SEMIC</text></g></g><path d="M620.5 40h10"></path><path d="M 630.5 40 h 20 m -10 -10 v 20 m 10 -20 v 20"></path></g></svg>