<svg class="railroad-diagram" height="92" viewBox="0 0 297.5 92" width="297.5" xmlns="http://www.w3.org/2000/svg">
<g transform="translate(.5 .5)">
<style>/* <![CDATA[ */
	svg.railroad-diagram {
		background-color:hsl(30,20%,95%);
	}
	svg.railroad-diagram path {
		stroke-width:3;
		stroke:black;
		fill:rgba(0,0,0,0);
	}
	svg.railroad-diagram text {
		font:bold 14px monospace;
		text-anchor:middle;
	}
	svg.railroad-diagram text.label{
		text-anchor:start;
	}
	svg.railroad-diagram text.comment{
		font:italic 12px monospace;
	}
	svg.railroad-diagram rect{
		stroke-width:3;
		stroke:black;
		fill:hsl(120,100%,90%);
	}
	svg.railroad-diagram rect.group-box {
		stroke: gray;
		stroke-dasharray: 10 5;
		fill: none;
	}

/* ]]> */
</style><g>
<path d="M20 21v20m10 -20v20m-10 -10h61.0"></path><text style="text-anchor:start" x="20" y="16">Import</text></g><path d="M81.0 31h10"></path><g>
<path d="M91.0 31h0.0"></path><path d="M247.5 31h0.0"></path><g class="terminal ">
<path d="M91.0 31h0.0"></path><path d="M162.0 31h0.0"></path><rect height="22" rx="10" ry="10" width="71.0" x="91.0" y="20"></rect><text x="126.5" y="35">IMPORT</text></g><path d="M162.0 31h10"></path><path d="M172.0 31h10"></path><g>
<path d="M182.0 31h0.0"></path><path d="M247.5 31h0.0"></path><path d="M182.0 31h10"></path><g class="terminal ">
<path d="M192.0 31h4.25"></path><path d="M233.25 31h4.25"></path><rect height="22" rx="10" ry="10" width="37.0" x="196.25" y="20"></rect><text x="214.75" y="35">ID</text></g><path d="M237.5 31h10"></path><path d="M192.0 31a10 10 0 0 0 -10 10v10a10 10 0 0 0 10 10"></path><g class="terminal ">
<path d="M192.0 61h0.0"></path><path d="M237.5 61h0.0"></path><rect height="22" rx="10" ry="10" width="45.5" x="192.0" y="50"></rect><text x="214.75" y="65">DOT</text></g><path d="M237.5 61a10 10 0 0 0 10 -10v-10a10 10 0 0 0 -10 -10"></path></g></g><path d="M247.5 31h10"></path><path d="M 257.5 31 h 20 m -10 -10 v 20 m 10 -20 v 20"></path></g></svg>