<svg class="railroad-diagram" height="71" viewBox="0 0 356.0 71" width="356.0" xmlns="http://www.w3.org/2000/svg">
<g transform="translate(.5 .5)">
<style>/* <![CDATA[ */
	svg.railroad-diagram {
		background-color:hsl(30,20%,95%);
	}
	svg.railroad-diagram path {
		stroke-width:3;
		stroke:black;
		fill:rgba(0,0,0,0);
	}
	svg.railroad-diagram text {
		font:bold 14px monospace;
		text-anchor:middle;
	}
	svg.railroad-diagram text.label{
		text-anchor:start;
	}
	svg.railroad-diagram text.comment{
		font:italic 12px monospace;
	}
	svg.railroad-diagram rect{
		stroke-width:3;
		stroke:black;
		fill:hsl(120,100%,90%);
	}
	svg.railroad-diagram rect.group-box {
		stroke: gray;
		stroke-dasharray: 10 5;
		fill: none;
	}

/* ]]> */
</style><g>
<path d="M20 30v20m10 -20v20m-10 -10h69.5"></path><text style="text-anchor:start" x="20" y="25">Inherit</text></g><path d="M89.5 40h10"></path><g>
<path d="M99.5 40h0.0"></path><path d="M306.0 40h0.0"></path><g class="terminal ">
<path d="M99.5 40h0.0"></path><path d="M136.5 40h0.0"></path><rect height="22" rx="10" ry="10" width="37.0" x="99.5" y="29"></rect><text x="118.0" y="44">ID</text></g><path d="M136.5 40h10"></path><g>
<path d="M146.5 40h0.0"></path><path d="M306.0 40h0.0"></path><path d="M146.5 40a10 10 0 0 0 10 -10v0a10 10 0 0 1 10 -10"></path><g>
<path d="M166.5 20h119.5"></path></g><path d="M286.0 20a10 10 0 0 1 10 10v0a10 10 0 0 0 10 10"></path><path d="M146.5 40h20"></path><g>
<path d="M166.5 40h0.0"></path><path d="M286.0 40h0.0"></path><g class="terminal ">
<path d="M166.5 40h0.0"></path><path d="M229.0 40h0.0"></path><rect height="22" rx="10" ry="10" width="62.5" x="166.5" y="29"></rect><text x="197.75" y="44">COLON</text></g><path d="M229.0 40h10"></path><path d="M239.0 40h10"></path><g class="terminal ">
<path d="M249.0 40h0.0"></path><path d="M286.0 40h0.0"></path><rect height="22" rx="10" ry="10" width="37.0" x="249.0" y="29"></rect><text x="267.5" y="44">ID</text></g></g><path d="M286.0 40h20"></path></g></g><path d="M306.0 40h10"></path><path d="M 316.0 40 h 20 m -10 -10 v 20 m 10 -20 v 20"></path></g></svg>