<svg class="railroad-diagram" height="92" viewBox="0 0 405.5 92" width="405.5" xmlns="http://www.w3.org/2000/svg">
<g transform="translate(.5 .5)">
<style>/* <![CDATA[ */
	svg.railroad-diagram {
		background-color:hsl(30,20%,95%);
	}
	svg.railroad-diagram path {
		stroke-width:3;
		stroke:black;
		fill:rgba(0,0,0,0);
	}
	svg.railroad-diagram text {
		font:bold 14px monospace;
		text-anchor:middle;
	}
	svg.railroad-diagram text.label{
		text-anchor:start;
	}
	svg.railroad-diagram text.comment{
		font:italic 12px monospace;
	}
	svg.railroad-diagram rect{
		stroke-width:3;
		stroke:black;
		fill:hsl(120,100%,90%);
	}
	svg.railroad-diagram rect.group-box {
		stroke: gray;
		stroke-dasharray: 10 5;
		fill: none;
	}

/* ]]> */
</style><g>
<path d="M20 21v20m10 -20v20m-10 -10h86.5"></path><text style="text-anchor:start" x="20" y="16">MatrixMux</text></g><path d="M106.5 31h10"></path><g>
<path d="M116.5 31h0.0"></path><path d="M355.5 31h0.0"></path><g class="terminal ">
<path d="M116.5 31h0.0"></path><path d="M170.5 31h0.0"></path><rect height="22" rx="10" ry="10" width="54.0" x="116.5" y="20"></rect><text x="143.5" y="35">LBRK</text></g><path d="M170.5 31h10"></path><path d="M180.5 31h10"></path><g>
<path d="M190.5 31h0.0"></path><path d="M281.5 31h0.0"></path><path d="M190.5 31h10"></path><g class="non-terminal ">
<path d="M200.5 31h0.0"></path><path d="M271.5 31h0.0"></path><rect height="22" width="71.0" x="200.5" y="20"></rect><text x="236.0" y="35">RowMux</text></g><path d="M271.5 31h10"></path><path d="M200.5 31a10 10 0 0 0 -10 10v10a10 10 0 0 0 10 10"></path><g class="terminal ">
<path d="M200.5 61h4.25"></path><path d="M267.25 61h4.25"></path><rect height="22" rx="10" ry="10" width="62.5" x="204.75" y="50"></rect><text x="236.0" y="65">SEMIC</text></g><path d="M271.5 61a10 10 0 0 0 10 -10v-10a10 10 0 0 0 -10 -10"></path></g><path d="M281.5 31h10"></path><path d="M291.5 31h10"></path><g class="terminal ">
<path d="M301.5 31h0.0"></path><path d="M355.5 31h0.0"></path><rect height="22" rx="10" ry="10" width="54.0" x="301.5" y="20"></rect><text x="328.5" y="35">RBRK</text></g></g><path d="M355.5 31h10"></path><path d="M 365.5 31 h 20 m -10 -10 v 20 m 10 -20 v 20"></path></g></svg>