<svg class="railroad-diagram" height="101" viewBox="0 0 542.0 101" width="542.0" xmlns="http://www.w3.org/2000/svg">
<g transform="translate(.5 .5)">
<style>/* <![CDATA[ */
	svg.railroad-diagram {
		background-color:hsl(30,20%,95%);
	}
	svg.railroad-diagram path {
		stroke-width:3;
		stroke:black;
		fill:rgba(0,0,0,0);
	}
	svg.railroad-diagram text {
		font:bold 14px monospace;
		text-anchor:middle;
	}
	svg.railroad-diagram text.label{
		text-anchor:start;
	}
	svg.railroad-diagram text.comment{
		font:italic 12px monospace;
	}
	svg.railroad-diagram rect{
		stroke-width:3;
		stroke:black;
		fill:hsl(120,100%,90%);
	}
	svg.railroad-diagram rect.group-box {
		stroke: gray;
		stroke-dasharray: 10 5;
		fill: none;
	}

/* ]]> */
</style><g>
<path d="M20 30v20m10 -20v20m-10 -10h103.5"></path><text style="text-anchor:start" x="20" y="25">MatrixDeMux</text></g><path d="M123.5 40h10"></path><g>
<path d="M133.5 40h0.0"></path><path d="M492.0 40h0.0"></path><g class="terminal ">
<path d="M133.5 40h0.0"></path><path d="M187.5 40h0.0"></path><rect height="22" rx="10" ry="10" width="54.0" x="133.5" y="29"></rect><text x="160.5" y="44">LBRK</text></g><path d="M187.5 40h10"></path><path d="M197.5 40h10"></path><g>
<path d="M207.5 40h0.0"></path><path d="M315.5 40h0.0"></path><path d="M207.5 40h10"></path><g class="non-terminal ">
<path d="M217.5 40h0.0"></path><path d="M305.5 40h0.0"></path><rect height="22" width="88.0" x="217.5" y="29"></rect><text x="261.5" y="44">RowDeMux</text></g><path d="M305.5 40h10"></path><path d="M217.5 40a10 10 0 0 0 -10 10v10a10 10 0 0 0 10 10"></path><g class="terminal ">
<path d="M217.5 70h12.75"></path><path d="M292.75 70h12.75"></path><rect height="22" rx="10" ry="10" width="62.5" x="230.25" y="59"></rect><text x="261.5" y="74">SEMIC</text></g><path d="M305.5 70a10 10 0 0 0 10 -10v-10a10 10 0 0 0 -10 -10"></path></g><path d="M315.5 40h10"></path><g>
<path d="M325.5 40h0.0"></path><path d="M428.0 40h0.0"></path><path d="M325.5 40a10 10 0 0 0 10 -10v0a10 10 0 0 1 10 -10"></path><g>
<path d="M345.5 20h62.5"></path></g><path d="M408.0 20a10 10 0 0 1 10 10v0a10 10 0 0 0 10 10"></path><path d="M325.5 40h20"></path><g class="terminal ">
<path d="M345.5 40h0.0"></path><path d="M408.0 40h0.0"></path><rect height="22" rx="10" ry="10" width="62.5" x="345.5" y="29"></rect><text x="376.75" y="44">SEMIC</text></g><path d="M408.0 40h20"></path></g><path d="M428.0 40h10"></path><g class="terminal ">
<path d="M438.0 40h0.0"></path><path d="M492.0 40h0.0"></path><rect height="22" rx="10" ry="10" width="54.0" x="438.0" y="29"></rect><text x="465.0" y="44">RBRK</text></g></g><path d="M492.0 40h10"></path><path d="M 502.0 40 h 20 m -10 -10 v 20 m 10 -20 v 20"></path></g></svg>