<svg class="railroad-diagram" height="122" viewBox="0 0 300.0 122" width="300.0" xmlns="http://www.w3.org/2000/svg">
<g transform="translate(.5 .5)">
<style>/* <![CDATA[ */
	svg.railroad-diagram {
		background-color:hsl(30,20%,95%);
	}
	svg.railroad-diagram path {
		stroke-width:3;
		stroke:black;
		fill:rgba(0,0,0,0);
	}
	svg.railroad-diagram text {
		font:bold 14px monospace;
		text-anchor:middle;
	}
	svg.railroad-diagram text.label{
		text-anchor:start;
	}
	svg.railroad-diagram text.comment{
		font:italic 12px monospace;
	}
	svg.railroad-diagram rect{
		stroke-width:3;
		stroke:black;
		fill:hsl(120,100%,90%);
	}
	svg.railroad-diagram rect.group-box {
		stroke: gray;
		stroke-dasharray: 10 5;
		fill: none;
	}

/* ]]> */
</style><g>
<path d="M20 21v20m10 -20v20m-10 -10h95.0"></path><text style="text-anchor:start" x="20" y="16">NodeFactor</text></g><path d="M115.0 31h10"></path><g>
<path d="M125.0 31h0.0"></path><path d="M250.0 31h0.0"></path><path d="M125.0 31h10"></path><g class="non-terminal ">
<path d="M135.0 31h0.0"></path><path d="M240.0 31h0.0"></path><rect height="22" width="105.0" x="135.0" y="20"></rect><text x="187.5" y="35">NodeEntity</text></g><path d="M240.0 31h10"></path><path d="M135.0 31a10 10 0 0 0 -10 10v10a10 10 0 0 0 10 10"></path><g>
<path d="M135.0 61h9.75"></path><path d="M230.25 61h9.75"></path><path d="M144.75 61h20"></path><g class="terminal ">
<path d="M164.75 61h0.0"></path><path d="M210.25 61h0.0"></path><rect height="22" rx="10" ry="10" width="45.5" x="164.75" y="50"></rect><text x="187.5" y="65">MUL</text></g><path d="M210.25 61h20"></path><path d="M144.75 61a10 10 0 0 1 10 10v10a10 10 0 0 0 10 10"></path><g class="terminal ">
<path d="M164.75 91h0.0"></path><path d="M210.25 91h0.0"></path><rect height="22" rx="10" ry="10" width="45.5" x="164.75" y="80"></rect><text x="187.5" y="95">DIV</text></g><path d="M210.25 91a10 10 0 0 0 10 -10v-10a10 10 0 0 1 10 -10"></path></g><path d="M240.0 61a10 10 0 0 0 10 -10v-10a10 10 0 0 0 -10 -10"></path></g><path d="M250.0 31h10"></path><path d="M 260.0 31 h 20 m -10 -10 v 20 m 10 -20 v 20"></path></g></svg>