<svg class="railroad-diagram" height="122" viewBox="0 0 283.0 122" width="283.0" xmlns="http://www.w3.org/2000/svg">
<g transform="translate(.5 .5)">
<style>/* <![CDATA[ */
	svg.railroad-diagram {
		background-color:hsl(30,20%,95%);
	}
	svg.railroad-diagram path {
		stroke-width:3;
		stroke:black;
		fill:rgba(0,0,0,0);
	}
	svg.railroad-diagram text {
		font:bold 14px monospace;
		text-anchor:middle;
	}
	svg.railroad-diagram text.label{
		text-anchor:start;
	}
	svg.railroad-diagram text.comment{
		font:italic 12px monospace;
	}
	svg.railroad-diagram rect{
		stroke-width:3;
		stroke:black;
		fill:hsl(120,100%,90%);
	}
	svg.railroad-diagram rect.group-box {
		stroke: gray;
		stroke-dasharray: 10 5;
		fill: none;
	}

/* ]]> */
</style><g>
<path d="M20 21v20m10 -20v20m-10 -10h78.0"></path><text style="text-anchor:start" x="20" y="16">NodeExpr</text></g><path d="M98.0 31h10"></path><g>
<path d="M108.0 31h0.0"></path><path d="M233.0 31h0.0"></path><path d="M108.0 31h10"></path><g class="non-terminal ">
<path d="M118.0 31h0.0"></path><path d="M223.0 31h0.0"></path><rect height="22" width="105.0" x="118.0" y="20"></rect><text x="170.5" y="35">NodeFactor</text></g><path d="M223.0 31h10"></path><path d="M118.0 31a10 10 0 0 0 -10 10v10a10 10 0 0 0 10 10"></path><g>
<path d="M118.0 61h1.25"></path><path d="M221.75 61h1.25"></path><path d="M119.25 61h20"></path><g class="terminal ">
<path d="M139.25 61h4.25"></path><path d="M197.5 61h4.25"></path><rect height="22" rx="10" ry="10" width="54.0" x="143.5" y="50"></rect><text x="170.5" y="65">PLUS</text></g><path d="M201.75 61h20"></path><path d="M119.25 61a10 10 0 0 1 10 10v10a10 10 0 0 0 10 10"></path><g class="terminal ">
<path d="M139.25 91h0.0"></path><path d="M201.75 91h0.0"></path><rect height="22" rx="10" ry="10" width="62.5" x="139.25" y="80"></rect><text x="170.5" y="95">MINUS</text></g><path d="M201.75 91a10 10 0 0 0 10 -10v-10a10 10 0 0 1 10 -10"></path></g><path d="M223.0 61a10 10 0 0 0 10 -10v-10a10 10 0 0 0 -10 -10"></path></g><path d="M233.0 31h10"></path><path d="M 243.0 31 h 20 m -10 -10 v 20 m 10 -20 v 20"></path></g></svg>