<svg class="railroad-diagram" height="242" viewBox="0 0 337.5 242" width="337.5" xmlns="http://www.w3.org/2000/svg">
<g transform="translate(.5 .5)">
<style>/* <![CDATA[ */
	svg.railroad-diagram {
		background-color:hsl(30,20%,95%);
	}
	svg.railroad-diagram path {
		stroke-width:3;
		stroke:black;
		fill:rgba(0,0,0,0);
	}
	svg.railroad-diagram text {
		font:bold 14px monospace;
		text-anchor:middle;
	}
	svg.railroad-diagram text.label{
		text-anchor:start;
	}
	svg.railroad-diagram text.comment{
		font:italic 12px monospace;
	}
	svg.railroad-diagram rect{
		stroke-width:3;
		stroke:black;
		fill:hsl(120,100%,90%);
	}
	svg.railroad-diagram rect.group-box {
		stroke: gray;
		stroke-dasharray: 10 5;
		fill: none;
	}

/* ]]> */
</style><g>
<path d="M20 81v20m10 -20v20m-10 -10h44.0"></path><text style="text-anchor:start" x="20" y="76">Node</text></g><g>
<path d="M64.0 91h0.0"></path><path d="M297.5 91h0.0"></path><path d="M64.0 91a10 10 0 0 0 10 -10v-40a10 10 0 0 1 10 -10"></path><g>
<path d="M84.0 31h13.5"></path><path d="M264.0 31h13.5"></path><g>
<path d="M97.5 31h0.0"></path><path d="M200.0 31h0.0"></path><path d="M97.5 31h20"></path><g class="terminal ">
<path d="M117.5 31h4.25"></path><path d="M175.75 31h4.25"></path><rect height="22" rx="10" ry="10" width="54.0" x="121.75" y="20"></rect><text x="148.75" y="35">PLUS</text></g><path d="M180.0 31h20"></path><path d="M97.5 31a10 10 0 0 1 10 10v10a10 10 0 0 0 10 10"></path><g class="terminal ">
<path d="M117.5 61h0.0"></path><path d="M180.0 61h0.0"></path><rect height="22" rx="10" ry="10" width="62.5" x="117.5" y="50"></rect><text x="148.75" y="65">MINUS</text></g><path d="M180.0 61a10 10 0 0 0 10 -10v-10a10 10 0 0 1 10 -10"></path></g><path d="M200.0 31h10"></path><g class="non-terminal ">
<path d="M210.0 31h0.0"></path><path d="M264.0 31h0.0"></path><rect height="22" width="54.0" x="210.0" y="20"></rect><text x="237.0" y="35">Node</text></g></g><path d="M277.5 31a10 10 0 0 1 10 10v40a10 10 0 0 0 10 10"></path><path d="M64.0 91h20"></path><g>
<path d="M84.0 91h0.0"></path><path d="M277.5 91h0.0"></path><g class="terminal ">
<path d="M84.0 91h0.0"></path><path d="M138.0 91h0.0"></path><rect height="22" rx="10" ry="10" width="54.0" x="84.0" y="80"></rect><text x="111.0" y="95">LPAR</text></g><path d="M138.0 91h10"></path><path d="M148.0 91h10"></path><g class="non-terminal ">
<path d="M158.0 91h0.0"></path><path d="M203.5 91h0.0"></path><rect height="22" width="45.5" x="158.0" y="80"></rect><text x="180.75" y="95">Bus</text></g><path d="M203.5 91h10"></path><path d="M213.5 91h10"></path><g class="terminal ">
<path d="M223.5 91h0.0"></path><path d="M277.5 91h0.0"></path><rect height="22" rx="10" ry="10" width="54.0" x="223.5" y="80"></rect><text x="250.5" y="95">RPAR</text></g></g><path d="M277.5 91h20"></path><path d="M64.0 91a10 10 0 0 1 10 10v10a10 10 0 0 0 10 10"></path><g class="terminal ">
<path d="M84.0 121h65.5"></path><path d="M212.0 121h65.5"></path><rect height="22" rx="10" ry="10" width="62.5" x="149.5" y="110"></rect><text x="180.75" y="125">DIGIT</text></g><path d="M277.5 121a10 10 0 0 0 10 -10v-10a10 10 0 0 1 10 -10"></path><path d="M64.0 91a10 10 0 0 1 10 10v40a10 10 0 0 0 10 10"></path><g class="non-terminal ">
<path d="M84.0 151h48.5"></path><path d="M229.0 151h48.5"></path><rect height="22" width="96.5" x="132.5" y="140"></rect><text x="180.75" y="155">MatrixMux</text></g><path d="M277.5 151a10 10 0 0 0 10 -10v-40a10 10 0 0 1 10 -10"></path><path d="M64.0 91a10 10 0 0 1 10 10v70a10 10 0 0 0 10 10"></path><g class="non-terminal ">
<path d="M84.0 181h40.0"></path><path d="M237.5 181h40.0"></path><rect height="22" width="113.5" x="124.0" y="170"></rect><text x="180.75" y="185">MatrixDeMux</text></g><path d="M277.5 181a10 10 0 0 0 10 -10v-70a10 10 0 0 1 10 -10"></path><path d="M64.0 91a10 10 0 0 1 10 10v100a10 10 0 0 0 10 10"></path><g class="non-terminal ">
<path d="M84.0 211h52.75"></path><path d="M224.75 211h52.75"></path><rect height="22" width="88.0" x="136.75" y="200"></rect><text x="180.75" y="215">Selector</text></g><path d="M277.5 211a10 10 0 0 0 10 -10v-100a10 10 0 0 1 10 -10"></path></g><path d="M 297.5 91 h 20 m -10 -10 v 20 m 10 -20 v 20"></path></g></svg>