<svg class="railroad-diagram" height="71" viewBox="0 0 396.0 71" width="396.0" xmlns="http://www.w3.org/2000/svg">
<g transform="translate(.5 .5)">
<style>/* <![CDATA[ */
	svg.railroad-diagram {
		background-color:hsl(30,20%,95%);
	}
	svg.railroad-diagram path {
		stroke-width:3;
		stroke:black;
		fill:rgba(0,0,0,0);
	}
	svg.railroad-diagram text {
		font:bold 14px monospace;
		text-anchor:middle;
	}
	svg.railroad-diagram text.label{
		text-anchor:start;
	}
	svg.railroad-diagram text.comment{
		font:italic 12px monospace;
	}
	svg.railroad-diagram rect{
		stroke-width:3;
		stroke:black;
		fill:hsl(120,100%,90%);
	}
	svg.railroad-diagram rect.group-box {
		stroke: gray;
		stroke-dasharray: 10 5;
		fill: none;
	}

/* ]]> */
</style><g>
<path d="M20 30v20m10 -20v20m-10 -10h44.0"></path><text style="text-anchor:start" x="20" y="25">Port</text></g><path d="M64.0 40h10"></path><g>
<path d="M74.0 40h0.0"></path><path d="M346.0 40h0.0"></path><g class="terminal ">
<path d="M74.0 40h0.0"></path><path d="M111.0 40h0.0"></path><rect height="22" rx="10" ry="10" width="37.0" x="74.0" y="29"></rect><text x="92.5" y="44">ID</text></g><path d="M111.0 40h10"></path><g>
<path d="M121.0 40h0.0"></path><path d="M346.0 40h0.0"></path><path d="M121.0 40a10 10 0 0 0 10 -10v0a10 10 0 0 1 10 -10"></path><g>
<path d="M141.0 20h185.0"></path></g><path d="M326.0 20a10 10 0 0 1 10 10v0a10 10 0 0 0 10 10"></path><path d="M121.0 40h20"></path><g>
<path d="M141.0 40h0.0"></path><path d="M326.0 40h0.0"></path><g class="terminal ">
<path d="M141.0 40h0.0"></path><path d="M195.0 40h0.0"></path><rect height="22" rx="10" ry="10" width="54.0" x="141.0" y="29"></rect><text x="168.0" y="44">LBRK</text></g><path d="M195.0 40h10"></path><path d="M205.0 40h10"></path><g class="terminal ">
<path d="M215.0 40h0.0"></path><path d="M252.0 40h0.0"></path><rect height="22" rx="10" ry="10" width="37.0" x="215.0" y="29"></rect><text x="233.5" y="44">ID</text></g><path d="M252.0 40h10"></path><path d="M262.0 40h10"></path><g class="terminal ">
<path d="M272.0 40h0.0"></path><path d="M326.0 40h0.0"></path><rect height="22" rx="10" ry="10" width="54.0" x="272.0" y="29"></rect><text x="299.0" y="44">RBRK</text></g></g><path d="M326.0 40h20"></path></g></g><path d="M346.0 40h10"></path><path d="M 356.0 40 h 20 m -10 -10 v 20 m 10 -20 v 20"></path></g></svg>