<svg class="railroad-diagram" height="152" viewBox="0 0 532.0 152" width="532.0" xmlns="http://www.w3.org/2000/svg">
<g transform="translate(.5 .5)">
<style>/* <![CDATA[ */
	svg.railroad-diagram {
		background-color:hsl(30,20%,95%);
	}
	svg.railroad-diagram path {
		stroke-width:3;
		stroke:black;
		fill:rgba(0,0,0,0);
	}
	svg.railroad-diagram text {
		font:bold 14px monospace;
		text-anchor:middle;
	}
	svg.railroad-diagram text.label{
		text-anchor:start;
	}
	svg.railroad-diagram text.comment{
		font:italic 12px monospace;
	}
	svg.railroad-diagram rect{
		stroke-width:3;
		stroke:black;
		fill:hsl(120,100%,90%);
	}
	svg.railroad-diagram rect.group-box {
		stroke: gray;
		stroke-dasharray: 10 5;
		fill: none;
	}

/* ]]> */
</style><g>
<path d="M20 111v20m10 -20v20m-10 -10h120.5"></path><text style="text-anchor:start" x="20" y="106">ProgramConfig</text></g><path d="M140.5 121h10"></path><g>
<path d="M150.5 121h0.0"></path><path d="M482.0 121h0.0"></path><g class="terminal ">
<path d="M150.5 121h0.0"></path><path d="M204.5 121h0.0"></path><rect height="22" rx="10" ry="10" width="54.0" x="150.5" y="110"></rect><text x="177.5" y="125">CONF</text></g><path d="M204.5 121h10"></path><path d="M214.5 121h10"></path><g class="terminal ">
<path d="M224.5 121h0.0"></path><path d="M261.5 121h0.0"></path><rect height="22" rx="10" ry="10" width="37.0" x="224.5" y="110"></rect><text x="243.0" y="125">ID</text></g><path d="M261.5 121h10"></path><path d="M271.5 121h10"></path><g class="terminal ">
<path d="M281.5 121h0.0"></path><path d="M335.5 121h0.0"></path><rect height="22" rx="10" ry="10" width="54.0" x="281.5" y="110"></rect><text x="308.5" y="125">FROM</text></g><path d="M335.5 121h10"></path><g>
<path d="M345.5 121h0.0"></path><path d="M482.0 121h0.0"></path><path d="M345.5 121a10 10 0 0 0 10 -10v-10a10 10 0 0 1 10 -10"></path><g class="terminal ">
<path d="M365.5 91h12.75"></path><path d="M449.25 91h12.75"></path><rect height="22" rx="10" ry="10" width="71.0" x="378.25" y="80"></rect><text x="413.75" y="95">STRING</text></g><path d="M462.0 91a10 10 0 0 1 10 10v10a10 10 0 0 0 10 10"></path><path d="M345.5 121a10 10 0 0 0 10 -10v-40a10 10 0 0 1 10 -10"></path><g class="terminal ">
<path d="M365.5 61h17.0"></path><path d="M445.0 61h17.0"></path><rect height="22" rx="10" ry="10" width="62.5" x="382.5" y="50"></rect><text x="413.75" y="65">FALSE</text></g><path d="M462.0 61a10 10 0 0 1 10 10v40a10 10 0 0 0 10 10"></path><path d="M345.5 121a10 10 0 0 0 10 -10v-70a10 10 0 0 1 10 -10"></path><g class="terminal ">
<path d="M365.5 31h21.25"></path><path d="M440.75 31h21.25"></path><rect height="22" rx="10" ry="10" width="54.0" x="386.75" y="20"></rect><text x="413.75" y="35">TRUE</text></g><path d="M462.0 31a10 10 0 0 1 10 10v70a10 10 0 0 0 10 10"></path><path d="M345.5 121h20"></path><g class="non-terminal ">
<path d="M365.5 121h0.0"></path><path d="M462.0 121h0.0"></path><rect height="22" width="96.5" x="365.5" y="110"></rect><text x="413.75" y="125">ValueExpr</text></g><path d="M462.0 121h20"></path></g></g><path d="M482.0 121h10"></path><path d="M 492.0 121 h 20 m -10 -10 v 20 m 10 -20 v 20"></path></g></svg>