<svg class="railroad-diagram" height="80" viewBox="0 0 344.5 80" width="344.5" xmlns="http://www.w3.org/2000/svg">
<g transform="translate(.5 .5)">
<style>/* <![CDATA[ */
	svg.railroad-diagram {
		background-color:hsl(30,20%,95%);
	}
	svg.railroad-diagram path {
		stroke-width:3;
		stroke:black;
		fill:rgba(0,0,0,0);
	}
	svg.railroad-diagram text {
		font:bold 14px monospace;
		text-anchor:middle;
	}
	svg.railroad-diagram text.label{
		text-anchor:start;
	}
	svg.railroad-diagram text.comment{
		font:italic 12px monospace;
	}
	svg.railroad-diagram rect{
		stroke-width:3;
		stroke:black;
		fill:hsl(120,100%,90%);
	}
	svg.railroad-diagram rect.group-box {
		stroke: gray;
		stroke-dasharray: 10 5;
		fill: none;
	}

/* ]]> */
</style><g>
<path d="M20 30v20m10 -20v20m-10 -10h35.5"></path><text style="text-anchor:start" x="20" y="25">Row</text></g><path d="M55.5 40h10"></path><g>
<path d="M65.5 40h0.0"></path><path d="M294.5 40h0.0"></path><path d="M65.5 40h10"></path><g>
<path d="M75.5 40h0.0"></path><path d="M284.5 40h0.0"></path><g class="non-terminal ">
<path d="M75.5 40h0.0"></path><path d="M172.0 40h0.0"></path><rect height="22" width="96.5" x="75.5" y="29"></rect><text x="123.75" y="44">ValueExpr</text></g><path d="M172.0 40h10"></path><g>
<path d="M182.0 40h0.0"></path><path d="M284.5 40h0.0"></path><path d="M182.0 40a10 10 0 0 0 10 -10v0a10 10 0 0 1 10 -10"></path><g>
<path d="M202.0 20h62.5"></path></g><path d="M264.5 20a10 10 0 0 1 10 10v0a10 10 0 0 0 10 10"></path><path d="M182.0 40h20"></path><g class="terminal ">
<path d="M202.0 40h0.0"></path><path d="M264.5 40h0.0"></path><rect height="22" rx="10" ry="10" width="62.5" x="202.0" y="29"></rect><text x="233.25" y="44">COMMA</text></g><path d="M264.5 40h20"></path></g></g><path d="M284.5 40h10"></path><path d="M75.5 40a10 10 0 0 0 -10 10v0a10 10 0 0 0 10 10"></path><g>
<path d="M75.5 60h209.0"></path></g><path d="M284.5 60a10 10 0 0 0 10 -10v0a10 10 0 0 0 -10 -10"></path></g><path d="M294.5 40h10"></path><path d="M 304.5 40 h 20 m -10 -10 v 20 m 10 -20 v 20"></path></g></svg>