<svg class="railroad-diagram" height="92" viewBox="0 0 249.0 92" width="249.0" xmlns="http://www.w3.org/2000/svg">
<g transform="translate(.5 .5)">
<style>/* <![CDATA[ */
	svg.railroad-diagram {
		background-color:hsl(30,20%,95%);
	}
	svg.railroad-diagram path {
		stroke-width:3;
		stroke:black;
		fill:rgba(0,0,0,0);
	}
	svg.railroad-diagram text {
		font:bold 14px monospace;
		text-anchor:middle;
	}
	svg.railroad-diagram text.label{
		text-anchor:start;
	}
	svg.railroad-diagram text.comment{
		font:italic 12px monospace;
	}
	svg.railroad-diagram rect{
		stroke-width:3;
		stroke:black;
		fill:hsl(120,100%,90%);
	}
	svg.railroad-diagram rect.group-box {
		stroke: gray;
		stroke-dasharray: 10 5;
		fill: none;
	}

/* ]]> */
</style><g>
<path d="M20 21v20m10 -20v20m-10 -10h61.0"></path><text style="text-anchor:start" x="20" y="16">RowMux</text></g><path d="M81.0 31h10"></path><g>
<path d="M91.0 31h0.0"></path><path d="M199.0 31h0.0"></path><path d="M91.0 31h10"></path><g class="non-terminal ">
<path d="M101.0 31h0.0"></path><path d="M189.0 31h0.0"></path><rect height="22" width="88.0" x="101.0" y="20"></rect><text x="145.0" y="35">NodeExpr</text></g><path d="M189.0 31h10"></path><path d="M101.0 31a10 10 0 0 0 -10 10v10a10 10 0 0 0 10 10"></path><g class="terminal ">
<path d="M101.0 61h12.75"></path><path d="M176.25 61h12.75"></path><rect height="22" rx="10" ry="10" width="62.5" x="113.75" y="50"></rect><text x="145.0" y="65">COMMA</text></g><path d="M189.0 61a10 10 0 0 0 10 -10v-10a10 10 0 0 0 -10 -10"></path></g><path d="M199.0 31h10"></path><path d="M 209.0 31 h 20 m -10 -10 v 20 m 10 -20 v 20"></path></g></svg>