<svg class="railroad-diagram" height="71" viewBox="0 0 390.0 71" width="390.0" xmlns="http://www.w3.org/2000/svg">
<g transform="translate(.5 .5)">
<style>/* <![CDATA[ */
	svg.railroad-diagram {
		background-color:hsl(30,20%,95%);
	}
	svg.railroad-diagram path {
		stroke-width:3;
		stroke:black;
		fill:rgba(0,0,0,0);
	}
	svg.railroad-diagram text {
		font:bold 14px monospace;
		text-anchor:middle;
	}
	svg.railroad-diagram text.label{
		text-anchor:start;
	}
	svg.railroad-diagram text.comment{
		font:italic 12px monospace;
	}
	svg.railroad-diagram rect{
		stroke-width:3;
		stroke:black;
		fill:hsl(120,100%,90%);
	}
	svg.railroad-diagram rect.group-box {
		stroke: gray;
		stroke-dasharray: 10 5;
		fill: none;
	}

/* ]]> */
</style><g>
<path d="M20 30v20m10 -20v20m-10 -10h78.0"></path><text style="text-anchor:start" x="20" y="25">Selector</text></g><path d="M98.0 40h10"></path><g>
<path d="M108.0 40h0.0"></path><path d="M340.0 40h0.0"></path><g class="non-terminal ">
<path d="M108.0 40h0.0"></path><path d="M170.5 40h0.0"></path><rect height="22" width="62.5" x="108.0" y="29"></rect><text x="139.25" y="44">Block</text></g><path d="M170.5 40h10"></path><g>
<path d="M180.5 40h0.0"></path><path d="M340.0 40h0.0"></path><path d="M180.5 40a10 10 0 0 0 10 -10v0a10 10 0 0 1 10 -10"></path><g>
<path d="M200.5 20h119.5"></path></g><path d="M320.0 20a10 10 0 0 1 10 10v0a10 10 0 0 0 10 10"></path><path d="M180.5 40h20"></path><g>
<path d="M200.5 40h0.0"></path><path d="M320.0 40h0.0"></path><g class="terminal ">
<path d="M200.5 40h0.0"></path><path d="M263.0 40h0.0"></path><rect height="22" rx="10" ry="10" width="62.5" x="200.5" y="29"></rect><text x="231.75" y="44">COLON</text></g><path d="M263.0 40h10"></path><path d="M273.0 40h10"></path><g class="terminal ">
<path d="M283.0 40h0.0"></path><path d="M320.0 40h0.0"></path><rect height="22" rx="10" ry="10" width="37.0" x="283.0" y="29"></rect><text x="301.5" y="44">ID</text></g></g><path d="M320.0 40h20"></path></g></g><path d="M340.0 40h10"></path><path d="M 350.0 40 h 20 m -10 -10 v 20 m 10 -20 v 20"></path></g></svg>