<svg class="railroad-diagram" height="80" viewBox="0 0 291.5 80" width="291.5" xmlns="http://www.w3.org/2000/svg">
<g transform="translate(.5 .5)">
<style>/* <![CDATA[ */
	svg.railroad-diagram {
		background-color:hsl(30,20%,95%);
	}
	svg.railroad-diagram path {
		stroke-width:3;
		stroke:black;
		fill:rgba(0,0,0,0);
	}
	svg.railroad-diagram text {
		font:bold 14px monospace;
		text-anchor:middle;
	}
	svg.railroad-diagram text.label{
		text-anchor:start;
	}
	svg.railroad-diagram text.comment{
		font:italic 12px monospace;
	}
	svg.railroad-diagram rect{
		stroke-width:3;
		stroke:black;
		fill:hsl(120,100%,90%);
	}
	svg.railroad-diagram rect.group-box {
		stroke: gray;
		stroke-dasharray: 10 5;
		fill: none;
	}

/* ]]> */
</style><g>
<path d="M20 20v20m10 -20v20m-10 -10h95.0"></path><text style="text-anchor:start" x="20" y="15">Statements</text></g><path d="M115.0 30h10"></path><g>
<path d="M125.0 30h0.0"></path><path d="M241.5 30h0.0"></path><path d="M125.0 30h10"></path><g>
<path d="M135.0 30h96.5"></path></g><path d="M231.5 30h10"></path><path d="M135.0 30a10 10 0 0 0 -10 10v0a10 10 0 0 0 10 10"></path><g class="non-terminal ">
<path d="M135.0 50h0.0"></path><path d="M231.5 50h0.0"></path><rect height="22" width="96.5" x="135.0" y="39"></rect><text x="183.25" y="54">Statement</text></g><path d="M231.5 50a10 10 0 0 0 10 -10v0a10 10 0 0 0 -10 -10"></path></g><path d="M241.5 30h10"></path><path d="M 251.5 30 h 20 m -10 -10 v 20 m 10 -20 v 20"></path></g></svg>