<svg class="railroad-diagram" height="101" viewBox="0 0 535.5 101" width="535.5" xmlns="http://www.w3.org/2000/svg">
<g transform="translate(.5 .5)">
<style>/* <![CDATA[ */
	svg.railroad-diagram {
		background-color:hsl(30,20%,95%);
	}
	svg.railroad-diagram path {
		stroke-width:3;
		stroke:black;
		fill:rgba(0,0,0,0);
	}
	svg.railroad-diagram text {
		font:bold 14px monospace;
		text-anchor:middle;
	}
	svg.railroad-diagram text.label{
		text-anchor:start;
	}
	svg.railroad-diagram text.comment{
		font:italic 12px monospace;
	}
	svg.railroad-diagram rect{
		stroke-width:3;
		stroke:black;
		fill:hsl(120,100%,90%);
	}
	svg.railroad-diagram rect.group-box {
		stroke: gray;
		stroke-dasharray: 10 5;
		fill: none;
	}

/* ]]> */
</style><g>
<path d="M20 30v20m10 -20v20m-10 -10h52.5"></path><text style="text-anchor:start" x="20" y="25">Using</text></g><path d="M72.5 40h10"></path><g>
<path d="M82.5 40h0.0"></path><path d="M485.5 40h0.0"></path><g class="terminal ">
<path d="M82.5 40h0.0"></path><path d="M145.0 40h0.0"></path><rect height="22" rx="10" ry="10" width="62.5" x="82.5" y="29"></rect><text x="113.75" y="44">USING</text></g><path d="M145.0 40h10"></path><path d="M155.0 40h10"></path><g>
<path d="M165.0 40h0.0"></path><path d="M230.5 40h0.0"></path><path d="M165.0 40h10"></path><g>
<path d="M175.0 40h45.5"></path></g><path d="M220.5 40h10"></path><path d="M175.0 40a10 10 0 0 0 -10 10v0a10 10 0 0 0 10 10"></path><g class="terminal ">
<path d="M175.0 60h0.0"></path><path d="M220.5 60h0.0"></path><rect height="22" rx="10" ry="10" width="45.5" x="175.0" y="49"></rect><text x="197.75" y="64">DOT</text></g><path d="M220.5 60a10 10 0 0 0 10 -10v0a10 10 0 0 0 -10 -10"></path></g><path d="M230.5 40h10"></path><path d="M240.5 40h10"></path><g>
<path d="M250.5 40h0.0"></path><path d="M316.0 40h0.0"></path><path d="M250.5 40h10"></path><g class="terminal ">
<path d="M260.5 40h4.25"></path><path d="M301.75 40h4.25"></path><rect height="22" rx="10" ry="10" width="37.0" x="264.75" y="29"></rect><text x="283.25" y="44">ID</text></g><path d="M306.0 40h10"></path><path d="M260.5 40a10 10 0 0 0 -10 10v10a10 10 0 0 0 10 10"></path><g class="terminal ">
<path d="M260.5 70h0.0"></path><path d="M306.0 70h0.0"></path><rect height="22" rx="10" ry="10" width="45.5" x="260.5" y="59"></rect><text x="283.25" y="74">DOT</text></g><path d="M306.0 70a10 10 0 0 0 10 -10v-10a10 10 0 0 0 -10 -10"></path></g><path d="M316.0 40h10"></path><g>
<path d="M326.0 40h0.0"></path><path d="M485.5 40h0.0"></path><path d="M326.0 40a10 10 0 0 0 10 -10v0a10 10 0 0 1 10 -10"></path><g>
<path d="M346.0 20h119.5"></path></g><path d="M465.5 20a10 10 0 0 1 10 10v0a10 10 0 0 0 10 10"></path><path d="M326.0 40h20"></path><g>
<path d="M346.0 40h0.0"></path><path d="M465.5 40h0.0"></path><g class="terminal ">
<path d="M346.0 40h0.0"></path><path d="M408.5 40h0.0"></path><rect height="22" rx="10" ry="10" width="62.5" x="346.0" y="29"></rect><text x="377.25" y="44">COLON</text></g><path d="M408.5 40h10"></path><path d="M418.5 40h10"></path><g class="terminal ">
<path d="M428.5 40h0.0"></path><path d="M465.5 40h0.0"></path><rect height="22" rx="10" ry="10" width="37.0" x="428.5" y="29"></rect><text x="447.0" y="44">ID</text></g></g><path d="M465.5 40h20"></path></g></g><path d="M485.5 40h10"></path><path d="M 495.5 40 h 20 m -10 -10 v 20 m 10 -20 v 20"></path></g></svg>