<svg class="railroad-diagram" height="92" viewBox="0 0 280.5 92" width="280.5" xmlns="http://www.w3.org/2000/svg">
<g transform="translate(.5 .5)">
<style>/* <![CDATA[ */
	svg.railroad-diagram {
		background-color:hsl(30,20%,95%);
	}
	svg.railroad-diagram path {
		stroke-width:3;
		stroke:black;
		fill:rgba(0,0,0,0);
	}
	svg.railroad-diagram text {
		font:bold 14px monospace;
		text-anchor:middle;
	}
	svg.railroad-diagram text.label{
		text-anchor:start;
	}
	svg.railroad-diagram text.comment{
		font:italic 12px monospace;
	}
	svg.railroad-diagram rect{
		stroke-width:3;
		stroke:black;
		fill:hsl(120,100%,90%);
	}
	svg.railroad-diagram rect.group-box {
		stroke: gray;
		stroke-dasharray: 10 5;
		fill: none;
	}

/* ]]> */
</style><g>
<path d="M20 21v20m10 -20v20m-10 -10h52.5"></path><text style="text-anchor:start" x="20" y="16">Using</text></g><path d="M72.5 31h10"></path><g>
<path d="M82.5 31h0.0"></path><path d="M230.5 31h0.0"></path><g class="terminal ">
<path d="M82.5 31h0.0"></path><path d="M145.0 31h0.0"></path><rect height="22" rx="10" ry="10" width="62.5" x="82.5" y="20"></rect><text x="113.75" y="35">USING</text></g><path d="M145.0 31h10"></path><path d="M155.0 31h10"></path><g>
<path d="M165.0 31h0.0"></path><path d="M230.5 31h0.0"></path><path d="M165.0 31h10"></path><g class="terminal ">
<path d="M175.0 31h4.25"></path><path d="M216.25 31h4.25"></path><rect height="22" rx="10" ry="10" width="37.0" x="179.25" y="20"></rect><text x="197.75" y="35">ID</text></g><path d="M220.5 31h10"></path><path d="M175.0 31a10 10 0 0 0 -10 10v10a10 10 0 0 0 10 10"></path><g class="terminal ">
<path d="M175.0 61h0.0"></path><path d="M220.5 61h0.0"></path><rect height="22" rx="10" ry="10" width="45.5" x="175.0" y="50"></rect><text x="197.75" y="65">DOT</text></g><path d="M220.5 61a10 10 0 0 0 10 -10v-10a10 10 0 0 0 -10 -10"></path></g></g><path d="M230.5 31h10"></path><path d="M 240.5 31 h 20 m -10 -10 v 20 m 10 -20 v 20"></path></g></svg>