<svg class="railroad-diagram" height="212" viewBox="0 0 397.0 212" width="397.0" xmlns="http://www.w3.org/2000/svg">
<g transform="translate(.5 .5)">
<style>/* <![CDATA[ */
	svg.railroad-diagram {
		background-color:hsl(30,20%,95%);
	}
	svg.railroad-diagram path {
		stroke-width:3;
		stroke:black;
		fill:rgba(0,0,0,0);
	}
	svg.railroad-diagram text {
		font:bold 14px monospace;
		text-anchor:middle;
	}
	svg.railroad-diagram text.label{
		text-anchor:start;
	}
	svg.railroad-diagram text.comment{
		font:italic 12px monospace;
	}
	svg.railroad-diagram rect{
		stroke-width:3;
		stroke:black;
		fill:hsl(120,100%,90%);
	}
	svg.railroad-diagram rect.group-box {
		stroke: gray;
		stroke-dasharray: 10 5;
		fill: none;
	}

/* ]]> */
</style><g>
<path d="M20 81v20m10 -20v20m-10 -10h52.5"></path><text style="text-anchor:start" x="20" y="76">Value</text></g><g>
<path d="M72.5 91h0.0"></path><path d="M357.0 91h0.0"></path><path d="M72.5 91a10 10 0 0 0 10 -10v-40a10 10 0 0 1 10 -10"></path><g>
<path d="M92.5 31h34.75"></path><path d="M302.25 31h34.75"></path><g>
<path d="M127.25 31h0.0"></path><path d="M229.75 31h0.0"></path><path d="M127.25 31h20"></path><g class="terminal ">
<path d="M147.25 31h4.25"></path><path d="M205.5 31h4.25"></path><rect height="22" rx="10" ry="10" width="54.0" x="151.5" y="20"></rect><text x="178.5" y="35">PLUS</text></g><path d="M209.75 31h20"></path><path d="M127.25 31a10 10 0 0 1 10 10v10a10 10 0 0 0 10 10"></path><g class="terminal ">
<path d="M147.25 61h0.0"></path><path d="M209.75 61h0.0"></path><rect height="22" rx="10" ry="10" width="62.5" x="147.25" y="50"></rect><text x="178.5" y="65">MINUS</text></g><path d="M209.75 61a10 10 0 0 0 10 -10v-10a10 10 0 0 1 10 -10"></path></g><path d="M229.75 31h10"></path><g class="non-terminal ">
<path d="M239.75 31h0.0"></path><path d="M302.25 31h0.0"></path><rect height="22" width="62.5" x="239.75" y="20"></rect><text x="271.0" y="35">Value</text></g></g><path d="M337.0 31a10 10 0 0 1 10 10v40a10 10 0 0 0 10 10"></path><path d="M72.5 91h20"></path><g>
<path d="M92.5 91h0.0"></path><path d="M337.0 91h0.0"></path><g class="terminal ">
<path d="M92.5 91h0.0"></path><path d="M146.5 91h0.0"></path><rect height="22" rx="10" ry="10" width="54.0" x="92.5" y="80"></rect><text x="119.5" y="95">LPAR</text></g><path d="M146.5 91h10"></path><path d="M156.5 91h10"></path><g class="non-terminal ">
<path d="M166.5 91h0.0"></path><path d="M263.0 91h0.0"></path><rect height="22" width="96.5" x="166.5" y="80"></rect><text x="214.75" y="95">ValueExpr</text></g><path d="M263.0 91h10"></path><path d="M273.0 91h10"></path><g class="terminal ">
<path d="M283.0 91h0.0"></path><path d="M337.0 91h0.0"></path><rect height="22" rx="10" ry="10" width="54.0" x="283.0" y="80"></rect><text x="310.0" y="95">RPAR</text></g></g><path d="M337.0 91h20"></path><path d="M72.5 91a10 10 0 0 1 10 10v10a10 10 0 0 0 10 10"></path><g class="terminal ">
<path d="M92.5 121h91.0"></path><path d="M246.0 121h91.0"></path><rect height="22" rx="10" ry="10" width="62.5" x="183.5" y="110"></rect><text x="214.75" y="125">DIGIT</text></g><path d="M337.0 121a10 10 0 0 0 10 -10v-10a10 10 0 0 1 10 -10"></path><path d="M72.5 91a10 10 0 0 1 10 10v40a10 10 0 0 0 10 10"></path><g class="non-terminal ">
<path d="M92.5 151h86.75"></path><path d="M250.25 151h86.75"></path><rect height="22" width="71.0" x="179.25" y="140"></rect><text x="214.75" y="155">Matrix</text></g><path d="M337.0 151a10 10 0 0 0 10 -10v-40a10 10 0 0 1 10 -10"></path><path d="M72.5 91a10 10 0 0 1 10 10v70a10 10 0 0 0 10 10"></path><g class="non-terminal ">
<path d="M92.5 181h82.5"></path><path d="M254.5 181h82.5"></path><rect height="22" width="79.5" x="175.0" y="170"></rect><text x="214.75" y="185">Pointer</text></g><path d="M337.0 181a10 10 0 0 0 10 -10v-70a10 10 0 0 1 10 -10"></path></g><path d="M 357.0 91 h 20 m -10 -10 v 20 m 10 -20 v 20"></path></g></svg>